<svg xmlns="http://www.w3.org/2000/svg" viewBox="0 0 510.24 510.24"><title>o2-white</title><g style="opacity:0.95"><path d="M425.2,255.12a165.67,165.67,0,0,0-13.46-65.94,168.46,168.46,0,0,0-90.68-90.69,168.36,168.36,0,0,0-131.88,0,168.52,168.52,0,0,0-90.69,90.69,168.36,168.36,0,0,0,0,131.88,168.46,168.46,0,0,0,90.69,90.68,168.25,168.25,0,0,0,131.88,0,168.4,168.4,0,0,0,90.68-90.68A165.67,165.67,0,0,0,425.2,255.12Zm85,0q0,69.42-34.22,128.06A254,254,0,0,1,383.18,476q-58.64,34.22-128.06,34.22T127.06,476a254,254,0,0,1-92.84-92.84Q0,324.54,0,255.12T34.22,127.06a253.9,253.9,0,0,1,92.84-92.84Q185.7,0,255.12,0T383.18,34.22A254,254,0,0,1,476,127.06Q510.24,185.7,510.24,255.12Z" style="fill:#ffffff"/></g></svg>
