<?xml version="1.0" encoding="utf-8"?>
<!-- Generator: Adobe Illustrator 23.0.3, SVG Export Plug-In . SVG Version: 6.00 Build 0)  -->
<svg version="1.1"
	 id="svg3025" xmlns:cc="http://creativecommons.org/ns#" xmlns:dc="http://purl.org/dc/elements/1.1/" xmlns:inkscape="http://www.inkscape.org/namespaces/inkscape" xmlns:rdf="http://www.w3.org/1999/02/22-rdf-syntax-ns#" xmlns:sodipodi="http://sodipodi.sourceforge.net/DTD/sodipodi-0.dtd" xmlns:svg="http://www.w3.org/2000/svg"
	 xmlns="http://www.w3.org/2000/svg" xmlns:xlink="http://www.w3.org/1999/xlink" x="0px" y="0px" viewBox="0 0 510.2 510.2"
	 style="enable-background:new 0 0 510.2 510.2;" xml:space="preserve">
<!-- <sodipodi:namedview  bordercolor="#666666" borderopacity="1" gridtolerance="10" guidetolerance="10" id="namedview3031" inkscape:current-layer="svg3025" inkscape:cx="896" inkscape:cy="896" inkscape:pageopacity="0" inkscape:pageshadow="2" inkscape:window-height="480" inkscape:window-maximized="0" inkscape:window-width="640" inkscape:window-x="0" inkscape:window-y="25" inkscape:zoom="0.13169643" objecttolerance="10" pagecolor="#ffffff" showgrid="false">
	</sodipodi:namedview> -->
<g id="g3027" transform="matrix(1,0,0,-1,121.49153,1285.4237)">
	<path id="path3029" inkscape:connector-curvature="0" d="M303.7,1030.3c0,23-4.5,45-13.5,65.9c-9,20.9-21.1,39-36.4,54.3
		s-33.4,27.4-54.3,36.4s-42.9,13.5-65.9,13.5s-45-4.5-65.9-13.5s-39-21.1-54.3-36.4s-27.4-33.4-36.4-54.3
		c-9-20.9-13.5-42.9-13.5-65.9s4.5-45,13.5-65.9s21.1-39,36.4-54.3c15.3-15.3,33.4-27.4,54.3-36.4s42.9-13.5,65.9-13.5
		s45,4.5,65.9,13.5s39,21.1,54.3,36.4c15.3,15.3,27.4,33.4,36.4,54.3S303.7,1007.3,303.7,1030.3z M388.7,1030.3
		c0-46.3-11.4-89-34.2-128.1c-22.8-39.1-53.8-70-92.8-92.8s-81.8-34.2-128.1-34.2s-89,11.4-128.1,34.2s-70,53.8-92.8,92.8
		c-22.8,39.1-34.2,81.8-34.2,128.1c0,46.3,11.4,89,34.2,128.1c22.8,39.1,53.8,70,92.8,92.8s81.8,34.2,128.1,34.2s89-11.4,128.1-34.2
		s70-53.8,92.8-92.8C377.3,1119.3,388.7,1076.6,388.7,1030.3z"/>
</g>

<style type="text/css">
	.st0{fill:none;stroke:#FFFFFF;stroke-width:2;stroke-linecap:round;stroke-linejoin:round;}
</style>
</svg>
